<?xml version="1.0" encoding="UTF-8" standalone="no"?>
<!DOCTYPE svg PUBLIC "-//W3C//DTD SVG 1.1//EN"
 "http://www.w3.org/Graphics/SVG/1.1/DTD/svg11.dtd">
<!-- Generated by graphviz version 13.0.1 (20250615.1724)
 -->
<!-- Pages: 1 -->
<svg width="491pt" height="679pt"
 viewBox="0.00 0.00 491.00 679.00" xmlns="http://www.w3.org/2000/svg" xmlns:xlink="http://www.w3.org/1999/xlink">
<g id="graph0" class="graph" transform="scale(1 1) rotate(0) translate(4 675.44)">
<polygon fill="white" stroke="none" points="-4,4 -4,-675.44 486.74,-675.44 486.74,4 -4,4"/>
<!-- 0 -->
<g id="node1" class="node">
<title>0</title>
<ellipse fill="none" stroke="black" cx="308.48" cy="-267.07" rx="27" ry="18"/>
<text xml:space="preserve" text-anchor="middle" x="308.48" y="-262.02" font-family="Times,serif" font-size="14.00">0</text>
</g>
<!-- 1 -->
<g id="node2" class="node">
<title>1</title>
<ellipse fill="none" stroke="black" cx="352.95" cy="-324.7" rx="27" ry="18"/>
<text xml:space="preserve" text-anchor="middle" x="352.95" y="-319.65" font-family="Times,serif" font-size="14.00">1</text>
</g>
<!-- 0&#45;&#45;1 -->
<g id="edge1" class="edge">
<title>0&#45;&#45;1</title>
<path fill="none" stroke="black" d="M321.1,-283.43C327.16,-291.28 334.4,-300.66 340.45,-308.5"/>
</g>
<!-- 2 -->
<g id="node3" class="node">
<title>2</title>
<ellipse fill="none" stroke="black" cx="233.84" cy="-364.76" rx="27" ry="18"/>
<text xml:space="preserve" text-anchor="middle" x="233.84" y="-359.71" font-family="Times,serif" font-size="14.00">2</text>
</g>
<!-- 0&#45;&#45;2 -->
<g id="edge2" class="edge">
<title>0&#45;&#45;2</title>
<path fill="none" stroke="black" d="M296.15,-283.2C282.32,-301.3 260.02,-330.5 246.18,-348.61"/>
</g>
<!-- 3 -->
<g id="node4" class="node">
<title>3</title>
<ellipse fill="none" stroke="black" cx="214.1" cy="-277.72" rx="27" ry="18"/>
<text xml:space="preserve" text-anchor="middle" x="214.1" y="-272.67" font-family="Times,serif" font-size="14.00">3</text>
</g>
<!-- 0&#45;&#45;3 -->
<g id="edge3" class="edge">
<title>0&#45;&#45;3</title>
<path fill="none" stroke="black" d="M281.44,-270.12C268.8,-271.55 253.79,-273.24 241.15,-274.67"/>
</g>
<!-- 4 -->
<g id="node5" class="node">
<title>4</title>
<ellipse fill="none" stroke="black" cx="429.28" cy="-198.44" rx="27" ry="18"/>
<text xml:space="preserve" text-anchor="middle" x="429.28" y="-193.39" font-family="Times,serif" font-size="14.00">4</text>
</g>
<!-- 0&#45;&#45;4 -->
<g id="edge4" class="edge">
<title>0&#45;&#45;4</title>
<path fill="none" stroke="black" d="M329.25,-255.27C351.37,-242.7 386.2,-222.91 408.38,-210.31"/>
</g>
<!-- 5 -->
<g id="node6" class="node">
<title>5</title>
<ellipse fill="none" stroke="black" cx="290.95" cy="-128.91" rx="27" ry="18"/>
<text xml:space="preserve" text-anchor="middle" x="290.95" y="-123.86" font-family="Times,serif" font-size="14.00">5</text>
</g>
<!-- 0&#45;&#45;5 -->
<g id="edge5" class="edge">
<title>0&#45;&#45;5</title>
<path fill="none" stroke="black" d="M306.15,-248.72C302.8,-222.3 296.65,-173.8 293.29,-147.33"/>
</g>
<!-- 6 -->
<g id="node7" class="node">
<title>6</title>
<ellipse fill="none" stroke="black" cx="359.9" cy="-137.98" rx="27" ry="18"/>
<text xml:space="preserve" text-anchor="middle" x="359.9" y="-132.93" font-family="Times,serif" font-size="14.00">6</text>
</g>
<!-- 0&#45;&#45;6 -->
<g id="edge6" class="edge">
<title>0&#45;&#45;6</title>
<path fill="none" stroke="black" d="M315.52,-249.39C325.37,-224.67 343.14,-180.05 352.94,-155.45"/>
</g>
<!-- 7 -->
<g id="node8" class="node">
<title>7</title>
<ellipse fill="none" stroke="black" cx="252.28" cy="-249.77" rx="27" ry="18"/>
<text xml:space="preserve" text-anchor="middle" x="252.28" y="-244.72" font-family="Times,serif" font-size="14.00">7</text>
</g>
<!-- 0&#45;&#45;7 -->
<g id="edge7" class="edge">
<title>0&#45;&#45;7</title>
<path fill="none" stroke="black" d="M283.67,-259.43C281.43,-258.74 279.17,-258.05 276.93,-257.36"/>
</g>
<!-- 8 -->
<g id="node9" class="node">
<title>8</title>
<ellipse fill="none" stroke="black" cx="312.36" cy="-411.29" rx="27" ry="18"/>
<text xml:space="preserve" text-anchor="middle" x="312.36" y="-406.24" font-family="Times,serif" font-size="14.00">8</text>
</g>
<!-- 0&#45;&#45;8 -->
<g id="edge8" class="edge">
<title>0&#45;&#45;8</title>
<path fill="none" stroke="black" d="M308.97,-285.34C309.72,-313.08 311.13,-365.52 311.87,-393.17"/>
</g>
<!-- 10 -->
<g id="node10" class="node">
<title>10</title>
<ellipse fill="none" stroke="black" cx="366.03" cy="-176.64" rx="27" ry="18"/>
<text xml:space="preserve" text-anchor="middle" x="366.03" y="-171.59" font-family="Times,serif" font-size="14.00">10</text>
</g>
<!-- 0&#45;&#45;10 -->
<g id="edge9" class="edge">
<title>0&#45;&#45;10</title>
<path fill="none" stroke="black" d="M319.04,-250.48C329.35,-234.27 344.98,-209.71 355.35,-193.42"/>
</g>
<!-- 11 -->
<g id="node11" class="node">
<title>11</title>
<ellipse fill="none" stroke="black" cx="221.99" cy="-145.56" rx="27" ry="18"/>
<text xml:space="preserve" text-anchor="middle" x="221.99" y="-140.51" font-family="Times,serif" font-size="14.00">11</text>
</g>
<!-- 0&#45;&#45;11 -->
<g id="edge10" class="edge">
<title>0&#45;&#45;11</title>
<path fill="none" stroke="black" d="M296.64,-250.43C280.07,-227.16 250.18,-185.16 233.69,-162"/>
</g>
<!-- 12 -->
<g id="node12" class="node">
<title>12</title>
<ellipse fill="none" stroke="black" cx="178.44" cy="-180.41" rx="27" ry="18"/>
<text xml:space="preserve" text-anchor="middle" x="178.44" y="-175.36" font-family="Times,serif" font-size="14.00">12</text>
</g>
<!-- 0&#45;&#45;12 -->
<g id="edge11" class="edge">
<title>0&#45;&#45;12</title>
<path fill="none" stroke="black" d="M289.01,-254.1C264.35,-237.67 222.13,-209.53 197.61,-193.19"/>
</g>
<!-- 13 -->
<g id="node13" class="node">
<title>13</title>
<ellipse fill="none" stroke="black" cx="290.43" cy="-373.3" rx="27" ry="18"/>
<text xml:space="preserve" text-anchor="middle" x="290.43" y="-368.25" font-family="Times,serif" font-size="14.00">13</text>
</g>
<!-- 0&#45;&#45;13 -->
<g id="edge12" class="edge">
<title>0&#45;&#45;13</title>
<path fill="none" stroke="black" d="M305.42,-285.09C302.1,-304.63 296.83,-335.62 293.51,-355.19"/>
</g>
<!-- 17 -->
<g id="node14" class="node">
<title>17</title>
<ellipse fill="none" stroke="black" cx="455.74" cy="-304.44" rx="27" ry="18"/>
<text xml:space="preserve" text-anchor="middle" x="455.74" y="-299.39" font-family="Times,serif" font-size="14.00">17</text>
</g>
<!-- 0&#45;&#45;17 -->
<g id="edge13" class="edge">
<title>0&#45;&#45;17</title>
<path fill="none" stroke="black" d="M334.13,-273.58C361.16,-280.44 403.46,-291.18 430.38,-298.01"/>
</g>
<!-- 19 -->
<g id="node15" class="node">
<title>19</title>
<ellipse fill="none" stroke="black" cx="358.52" cy="-403.78" rx="27" ry="18"/>
<text xml:space="preserve" text-anchor="middle" x="358.52" y="-398.73" font-family="Times,serif" font-size="14.00">19</text>
</g>
<!-- 0&#45;&#45;19 -->
<g id="edge14" class="edge">
<title>0&#45;&#45;19</title>
<path fill="none" stroke="black" d="M315.02,-284.94C324.61,-311.14 342.39,-359.7 351.98,-385.9"/>
</g>
<!-- 21 -->
<g id="node16" class="node">
<title>21</title>
<ellipse fill="none" stroke="black" cx="441.45" cy="-262.31" rx="27" ry="18"/>
<text xml:space="preserve" text-anchor="middle" x="441.45" y="-257.26" font-family="Times,serif" font-size="14.00">21</text>
</g>
<!-- 0&#45;&#45;21 -->
<g id="edge15" class="edge">
<title>0&#45;&#45;21</title>
<path fill="none" stroke="black" d="M335.71,-266.09C358.66,-265.27 391.32,-264.1 414.26,-263.28"/>
</g>
<!-- 31 -->
<g id="node17" class="node">
<title>31</title>
<ellipse fill="none" stroke="black" cx="184.17" cy="-364.69" rx="27" ry="18"/>
<text xml:space="preserve" text-anchor="middle" x="184.17" y="-359.64" font-family="Times,serif" font-size="14.00">31</text>
</g>
<!-- 0&#45;&#45;31 -->
<g id="edge16" class="edge">
<title>0&#45;&#45;31</title>
<path fill="none" stroke="black" d="M290.67,-281.06C267.04,-299.62 225.57,-332.19 201.95,-350.73"/>
</g>
<!-- 1&#45;&#45;2 -->
<g id="edge17" class="edge">
<title>1&#45;&#45;2</title>
<path fill="none" stroke="black" d="M328.56,-332.9C308,-339.82 278.74,-349.66 258.19,-356.57"/>
</g>
<!-- 1&#45;&#45;3 -->
<g id="edge18" class="edge">
<title>1&#45;&#45;3</title>
<path fill="none" stroke="black" d="M328.45,-316.41C303.07,-307.82 263.65,-294.48 238.36,-285.92"/>
</g>
<!-- 1&#45;&#45;7 -->
<g id="edge19" class="edge">
<title>1&#45;&#45;7</title>
<path fill="none" stroke="black" d="M334.95,-311.3C316.74,-297.75 288.74,-276.9 270.46,-263.3"/>
</g>
<!-- 1&#45;&#45;13 -->
<g id="edge20" class="edge">
<title>1&#45;&#45;13</title>
<path fill="none" stroke="black" d="M335.2,-338.5C326.68,-345.12 316.51,-353.03 308.01,-359.64"/>
</g>
<!-- 1&#45;&#45;17 -->
<g id="edge21" class="edge">
<title>1&#45;&#45;17</title>
<path fill="none" stroke="black" d="M379.15,-319.53C394.62,-316.49 414.13,-312.64 429.58,-309.6"/>
</g>
<!-- 1&#45;&#45;19 -->
<g id="edge22" class="edge">
<title>1&#45;&#45;19</title>
<path fill="none" stroke="black" d="M354.24,-343.04C355.14,-355.82 356.34,-372.78 357.24,-385.54"/>
</g>
<!-- 1&#45;&#45;21 -->
<g id="edge23" class="edge">
<title>1&#45;&#45;21</title>
<path fill="none" stroke="black" d="M371.72,-311.47C386.74,-300.88 407.7,-286.1 422.71,-275.52"/>
</g>
<!-- 30 -->
<g id="node18" class="node">
<title>30</title>
<ellipse fill="none" stroke="black" cx="363.88" cy="-473.13" rx="27" ry="18"/>
<text xml:space="preserve" text-anchor="middle" x="363.88" y="-468.08" font-family="Times,serif" font-size="14.00">30</text>
</g>
<!-- 1&#45;&#45;30 -->
<g id="edge24" class="edge">
<title>1&#45;&#45;30</title>
<path fill="none" stroke="black" d="M354.29,-342.9C356.39,-371.39 360.43,-426.2 362.53,-454.78"/>
</g>
<!-- 2&#45;&#45;3 -->
<g id="edge25" class="edge">
<title>2&#45;&#45;3</title>
<path fill="none" stroke="black" d="M229.75,-346.73C226.36,-331.79 221.57,-310.66 218.18,-295.73"/>
</g>
<!-- 2&#45;&#45;7 -->
<g id="edge26" class="edge">
<title>2&#45;&#45;7</title>
<path fill="none" stroke="black" d="M236.76,-346.54C240.21,-325.01 245.92,-289.4 249.37,-267.91"/>
</g>
<!-- 2&#45;&#45;8 -->
<g id="edge27" class="edge">
<title>2&#45;&#45;8</title>
<path fill="none" stroke="black" d="M254.47,-376.99C266.01,-383.82 280.34,-392.32 291.86,-399.15"/>
</g>
<!-- 2&#45;&#45;13 -->
<g id="edge29" class="edge">
<title>2&#45;&#45;13</title>
<path fill="none" stroke="black" d="M260.48,-368.78C261.62,-368.95 262.77,-369.13 263.92,-369.3"/>
</g>
<!-- 9 -->
<g id="node19" class="node">
<title>9</title>
<ellipse fill="none" stroke="black" cx="169.74" cy="-458.94" rx="27" ry="18"/>
<text xml:space="preserve" text-anchor="middle" x="169.74" y="-453.89" font-family="Times,serif" font-size="14.00">9</text>
</g>
<!-- 2&#45;&#45;9 -->
<g id="edge28" class="edge">
<title>2&#45;&#45;9</title>
<path fill="none" stroke="black" d="M222.67,-381.17C210.98,-398.35 192.71,-425.18 180.99,-442.41"/>
</g>
<!-- 27 -->
<g id="node20" class="node">
<title>27</title>
<ellipse fill="none" stroke="black" cx="113.51" cy="-427.36" rx="27" ry="18"/>
<text xml:space="preserve" text-anchor="middle" x="113.51" y="-422.31" font-family="Times,serif" font-size="14.00">27</text>
</g>
<!-- 2&#45;&#45;27 -->
<g id="edge30" class="edge">
<title>2&#45;&#45;27</title>
<path fill="none" stroke="black" d="M212.32,-375.95C190.56,-387.27 157.08,-404.69 135.24,-416.05"/>
</g>
<!-- 28 -->
<g id="node21" class="node">
<title>28</title>
<ellipse fill="none" stroke="black" cx="141.73" cy="-414.07" rx="27" ry="18"/>
<text xml:space="preserve" text-anchor="middle" x="141.73" y="-409.02" font-family="Times,serif" font-size="14.00">28</text>
</g>
<!-- 2&#45;&#45;28 -->
<g id="edge31" class="edge">
<title>2&#45;&#45;28</title>
<path fill="none" stroke="black" d="M212.47,-376.2C197.59,-384.16 177.83,-394.74 162.98,-402.7"/>
</g>
<!-- 32 -->
<g id="node22" class="node">
<title>32</title>
<ellipse fill="none" stroke="black" cx="253.74" cy="-509.99" rx="27" ry="18"/>
<text xml:space="preserve" text-anchor="middle" x="253.74" y="-504.94" font-family="Times,serif" font-size="14.00">32</text>
</g>
<!-- 2&#45;&#45;32 -->
<g id="edge32" class="edge">
<title>2&#45;&#45;32</title>
<path fill="none" stroke="black" d="M236.36,-383.15C240.18,-411.09 247.42,-463.9 251.24,-491.75"/>
</g>
<!-- 3&#45;&#45;7 -->
<g id="edge33" class="edge">
<title>3&#45;&#45;7</title>
<path fill="none" stroke="black" d="M232.29,-264.4C232.76,-264.06 233.22,-263.72 233.68,-263.38"/>
</g>
<!-- 3&#45;&#45;12 -->
<g id="edge34" class="edge">
<title>3&#45;&#45;12</title>
<path fill="none" stroke="black" d="M207.56,-259.87C201.12,-242.31 191.36,-215.66 184.94,-198.15"/>
</g>
<!-- 3&#45;&#45;13 -->
<g id="edge35" class="edge">
<title>3&#45;&#45;13</title>
<path fill="none" stroke="black" d="M227.05,-293.93C241.09,-311.51 263.36,-339.4 277.42,-357.01"/>
</g>
<!-- 4&#45;&#45;6 -->
<g id="edge36" class="edge">
<title>4&#45;&#45;6</title>
<path fill="none" stroke="black" d="M412.48,-183.8C401.57,-174.3 387.41,-161.96 376.54,-152.48"/>
</g>
<!-- 4&#45;&#45;10 -->
<g id="edge37" class="edge">
<title>4&#45;&#45;10</title>
<path fill="none" stroke="black" d="M405.01,-190.07C400.13,-188.39 395,-186.62 390.13,-184.95"/>
</g>
<!-- 5&#45;&#45;6 -->
<g id="edge38" class="edge">
<title>5&#45;&#45;6</title>
<path fill="none" stroke="black" d="M317.81,-132.44C322.8,-133.1 328.01,-133.79 333,-134.44"/>
</g>
<!-- 5&#45;&#45;10 -->
<g id="edge39" class="edge">
<title>5&#45;&#45;10</title>
<path fill="none" stroke="black" d="M310.68,-141.45C321.63,-148.41 335.21,-157.04 346.18,-164.02"/>
</g>
<!-- 16 -->
<g id="node23" class="node">
<title>16</title>
<ellipse fill="none" stroke="black" cx="351.05" cy="-18" rx="27" ry="18"/>
<text xml:space="preserve" text-anchor="middle" x="351.05" y="-12.95" font-family="Times,serif" font-size="14.00">16</text>
</g>
<!-- 5&#45;&#45;16 -->
<g id="edge40" class="edge">
<title>5&#45;&#45;16</title>
<path fill="none" stroke="black" d="M300.34,-111.58C311.63,-90.75 330.47,-55.99 341.73,-35.21"/>
</g>
<!-- 6&#45;&#45;16 -->
<g id="edge41" class="edge">
<title>6&#45;&#45;16</title>
<path fill="none" stroke="black" d="M358.55,-119.76C356.89,-97.21 354.08,-59.02 352.41,-36.39"/>
</g>
<!-- 8&#45;&#45;30 -->
<g id="edge42" class="edge">
<title>8&#45;&#45;30</title>
<path fill="none" stroke="black" d="M325.63,-427.22C333.26,-436.38 342.82,-447.86 350.48,-457.05"/>
</g>
<!-- 8&#45;&#45;32 -->
<g id="edge43" class="edge">
<title>8&#45;&#45;32</title>
<path fill="none" stroke="black" d="M302.41,-428.03C291.7,-446.07 274.74,-474.63 263.93,-492.83"/>
</g>
<!-- 33 -->
<g id="node24" class="node">
<title>33</title>
<ellipse fill="none" stroke="black" cx="230.67" cy="-499.25" rx="27" ry="18"/>
<text xml:space="preserve" text-anchor="middle" x="230.67" y="-494.2" font-family="Times,serif" font-size="14.00">33</text>
</g>
<!-- 8&#45;&#45;33 -->
<g id="edge44" class="edge">
<title>8&#45;&#45;33</title>
<path fill="none" stroke="black" d="M298.13,-426.61C283.23,-442.66 259.95,-467.72 245.01,-483.81"/>
</g>
<!-- 13&#45;&#45;33 -->
<g id="edge46" class="edge">
<title>13&#45;&#45;33</title>
<path fill="none" stroke="black" d="M282.12,-390.82C270.71,-414.88 250.29,-457.9 238.91,-481.89"/>
</g>
<!-- 19&#45;&#45;33 -->
<g id="edge53" class="edge">
<title>19&#45;&#45;33</title>
<path fill="none" stroke="black" d="M340.21,-417.46C315.9,-435.61 273.24,-467.46 248.95,-485.6"/>
</g>
<!-- 31&#45;&#45;32 -->
<g id="edge76" class="edge">
<title>31&#45;&#45;32</title>
<path fill="none" stroke="black" d="M192.57,-382.22C205.94,-410.15 231.93,-464.44 245.32,-492.4"/>
</g>
<!-- 31&#45;&#45;33 -->
<g id="edge77" class="edge">
<title>31&#45;&#45;33</title>
<path fill="none" stroke="black" d="M190.35,-382.56C199.24,-408.3 215.56,-455.53 224.47,-481.31"/>
</g>
<!-- 30&#45;&#45;32 -->
<g id="edge74" class="edge">
<title>30&#45;&#45;32</title>
<path fill="none" stroke="black" d="M339.44,-481.31C321.19,-487.42 296.35,-495.73 278.12,-501.83"/>
</g>
<!-- 30&#45;&#45;33 -->
<g id="edge75" class="edge">
<title>30&#45;&#45;33</title>
<path fill="none" stroke="black" d="M337.57,-478.3C314.21,-482.87 280.27,-489.53 256.93,-494.1"/>
</g>
<!-- 9&#45;&#45;33 -->
<g id="edge45" class="edge">
<title>9&#45;&#45;33</title>
<path fill="none" stroke="black" d="M189.02,-471.7C196.13,-476.4 204.18,-481.73 211.3,-486.44"/>
</g>
<!-- 27&#45;&#45;33 -->
<g id="edge69" class="edge">
<title>27&#45;&#45;33</title>
<path fill="none" stroke="black" d="M133.65,-439.71C155.11,-452.88 188.89,-473.61 210.4,-486.81"/>
</g>
<!-- 28&#45;&#45;31 -->
<g id="edge70" class="edge">
<title>28&#45;&#45;31</title>
<path fill="none" stroke="black" d="M155.39,-398.18C160.24,-392.54 165.69,-386.2 170.54,-380.56"/>
</g>
<!-- 28&#45;&#45;33 -->
<g id="edge71" class="edge">
<title>28&#45;&#45;33</title>
<path fill="none" stroke="black" d="M157.22,-428.91C173.45,-444.45 198.79,-468.72 215.05,-484.3"/>
</g>
<!-- 32&#45;&#45;33 -->
<g id="edge78" class="edge">
<title>32&#45;&#45;33</title>
<path fill="none" stroke="black" d="M231.24,-499.52C231.05,-499.43 230.91,-499.37 230.81,-499.32"/>
</g>
<!-- 14 -->
<g id="node25" class="node">
<title>14</title>
<ellipse fill="none" stroke="black" cx="290.17" cy="-614.12" rx="27" ry="18"/>
<text xml:space="preserve" text-anchor="middle" x="290.17" y="-609.07" font-family="Times,serif" font-size="14.00">14</text>
</g>
<!-- 14&#45;&#45;32 -->
<g id="edge47" class="edge">
<title>14&#45;&#45;32</title>
<path fill="none" stroke="black" d="M283.99,-596.46C277.29,-577.31 266.66,-546.92 259.95,-527.74"/>
</g>
<!-- 14&#45;&#45;33 -->
<g id="edge48" class="edge">
<title>14&#45;&#45;33</title>
<path fill="none" stroke="black" d="M281.13,-596.67C269.89,-574.96 250.79,-538.1 239.59,-516.49"/>
</g>
<!-- 15 -->
<g id="node26" class="node">
<title>15</title>
<ellipse fill="none" stroke="black" cx="363.33" cy="-563.93" rx="27" ry="18"/>
<text xml:space="preserve" text-anchor="middle" x="363.33" y="-558.88" font-family="Times,serif" font-size="14.00">15</text>
</g>
<!-- 15&#45;&#45;32 -->
<g id="edge49" class="edge">
<title>15&#45;&#45;32</title>
<path fill="none" stroke="black" d="M341.15,-553.01C322.14,-543.65 294.89,-530.24 275.88,-520.89"/>
</g>
<!-- 15&#45;&#45;33 -->
<g id="edge50" class="edge">
<title>15&#45;&#45;33</title>
<path fill="none" stroke="black" d="M341.13,-553.1C316.49,-541.09 276.99,-521.84 252.5,-509.9"/>
</g>
<!-- 18 -->
<g id="node27" class="node">
<title>18</title>
<ellipse fill="none" stroke="black" cx="332.62" cy="-595.51" rx="27" ry="18"/>
<text xml:space="preserve" text-anchor="middle" x="332.62" y="-590.46" font-family="Times,serif" font-size="14.00">18</text>
</g>
<!-- 18&#45;&#45;32 -->
<g id="edge51" class="edge">
<title>18&#45;&#45;32</title>
<path fill="none" stroke="black" d="M318.15,-579.82C303.92,-564.39 282.32,-540.97 268.11,-525.58"/>
</g>
<!-- 18&#45;&#45;33 -->
<g id="edge52" class="edge">
<title>18&#45;&#45;33</title>
<path fill="none" stroke="black" d="M316.69,-580.47C297.53,-562.38 265.59,-532.22 246.48,-514.19"/>
</g>
<!-- 20 -->
<g id="node28" class="node">
<title>20</title>
<ellipse fill="none" stroke="black" cx="208.51" cy="-613.9" rx="27" ry="18"/>
<text xml:space="preserve" text-anchor="middle" x="208.51" y="-608.85" font-family="Times,serif" font-size="14.00">20</text>
</g>
<!-- 20&#45;&#45;32 -->
<g id="edge54" class="edge">
<title>20&#45;&#45;32</title>
<path fill="none" stroke="black" d="M216.18,-596.27C224.5,-577.16 237.7,-546.84 246.03,-527.7"/>
</g>
<!-- 20&#45;&#45;33 -->
<g id="edge55" class="edge">
<title>20&#45;&#45;33</title>
<path fill="none" stroke="black" d="M212.02,-595.73C216.17,-574.26 223.03,-538.76 227.17,-517.33"/>
</g>
<!-- 22 -->
<g id="node29" class="node">
<title>22</title>
<ellipse fill="none" stroke="black" cx="123.28" cy="-578.99" rx="27" ry="18"/>
<text xml:space="preserve" text-anchor="middle" x="123.28" y="-573.94" font-family="Times,serif" font-size="14.00">22</text>
</g>
<!-- 22&#45;&#45;32 -->
<g id="edge56" class="edge">
<title>22&#45;&#45;32</title>
<path fill="none" stroke="black" d="M144.82,-567.6C168.99,-554.82 207.98,-534.2 232.16,-521.4"/>
</g>
<!-- 22&#45;&#45;33 -->
<g id="edge57" class="edge">
<title>22&#45;&#45;33</title>
<path fill="none" stroke="black" d="M141.49,-565.47C161.24,-550.8 192.58,-527.54 212.36,-512.85"/>
</g>
<!-- 23 -->
<g id="node30" class="node">
<title>23</title>
<ellipse fill="none" stroke="black" cx="95.29" cy="-518.6" rx="27" ry="18"/>
<text xml:space="preserve" text-anchor="middle" x="95.29" y="-513.55" font-family="Times,serif" font-size="14.00">23</text>
</g>
<!-- 23&#45;&#45;27 -->
<g id="edge59" class="edge">
<title>23&#45;&#45;27</title>
<path fill="none" stroke="black" d="M98.89,-500.57C102.06,-484.68 106.66,-461.63 109.85,-445.66"/>
</g>
<!-- 23&#45;&#45;32 -->
<g id="edge61" class="edge">
<title>23&#45;&#45;32</title>
<path fill="none" stroke="black" d="M122.53,-517.12C151.64,-515.54 197.52,-513.05 226.59,-511.47"/>
</g>
<!-- 23&#45;&#45;33 -->
<g id="edge62" class="edge">
<title>23&#45;&#45;33</title>
<path fill="none" stroke="black" d="M122.04,-514.78C145.77,-511.39 180.26,-506.46 203.98,-503.07"/>
</g>
<!-- 25 -->
<g id="node31" class="node">
<title>25</title>
<ellipse fill="none" stroke="black" cx="27" cy="-396.65" rx="27" ry="18"/>
<text xml:space="preserve" text-anchor="middle" x="27" y="-391.6" font-family="Times,serif" font-size="14.00">25</text>
</g>
<!-- 23&#45;&#45;25 -->
<g id="edge58" class="edge">
<title>23&#45;&#45;25</title>
<path fill="none" stroke="black" d="M85.65,-501.39C72.64,-478.15 49.58,-436.98 36.59,-413.78"/>
</g>
<!-- 29 -->
<g id="node32" class="node">
<title>29</title>
<ellipse fill="none" stroke="black" cx="158.91" cy="-592.49" rx="27" ry="18"/>
<text xml:space="preserve" text-anchor="middle" x="158.91" y="-587.44" font-family="Times,serif" font-size="14.00">29</text>
</g>
<!-- 23&#45;&#45;29 -->
<g id="edge60" class="edge">
<title>23&#45;&#45;29</title>
<path fill="none" stroke="black" d="M108.79,-534.27C119.51,-546.72 134.45,-564.07 145.22,-576.59"/>
</g>
<!-- 25&#45;&#45;31 -->
<g id="edge66" class="edge">
<title>25&#45;&#45;31</title>
<path fill="none" stroke="black" d="M53.31,-391.31C82.41,-385.39 129.01,-375.91 158.04,-370.01"/>
</g>
<!-- 29&#45;&#45;32 -->
<g id="edge72" class="edge">
<title>29&#45;&#45;32</title>
<path fill="none" stroke="black" d="M175.43,-578.12C192.73,-563.07 219.75,-539.56 237.09,-524.47"/>
</g>
<!-- 29&#45;&#45;33 -->
<g id="edge73" class="edge">
<title>29&#45;&#45;33</title>
<path fill="none" stroke="black" d="M171.41,-576.25C184.5,-559.24 204.94,-532.68 218.07,-515.62"/>
</g>
<!-- 24 -->
<g id="node33" class="node">
<title>24</title>
<ellipse fill="none" stroke="black" cx="48.24" cy="-317.88" rx="27" ry="18"/>
<text xml:space="preserve" text-anchor="middle" x="48.24" y="-312.83" font-family="Times,serif" font-size="14.00">24</text>
</g>
<!-- 24&#45;&#45;31 -->
<g id="edge65" class="edge">
<title>24&#45;&#45;31</title>
<path fill="none" stroke="black" d="M72.54,-326.25C97.28,-334.77 135.41,-347.9 160.08,-356.4"/>
</g>
<!-- 24&#45;&#45;27 -->
<g id="edge64" class="edge">
<title>24&#45;&#45;27</title>
<path fill="none" stroke="black" d="M58.44,-334.98C70.7,-355.55 91.15,-389.86 103.38,-410.37"/>
</g>
<!-- 24&#45;&#45;25 -->
<g id="edge63" class="edge">
<title>24&#45;&#45;25</title>
<path fill="none" stroke="black" d="M43.42,-335.75C39.97,-348.55 35.34,-365.73 31.87,-378.58"/>
</g>
<!-- 26 -->
<g id="node34" class="node">
<title>26</title>
<ellipse fill="none" stroke="black" cx="231.28" cy="-653.44" rx="27" ry="18"/>
<text xml:space="preserve" text-anchor="middle" x="231.28" y="-648.39" font-family="Times,serif" font-size="14.00">26</text>
</g>
<!-- 26&#45;&#45;33 -->
<g id="edge68" class="edge">
<title>26&#45;&#45;33</title>
<path fill="none" stroke="black" d="M231.21,-635.15C231.09,-605.47 230.86,-547.18 230.74,-517.52"/>
</g>
<!-- 26&#45;&#45;29 -->
<g id="edge67" class="edge">
<title>26&#45;&#45;29</title>
<path fill="none" stroke="black" d="M214.13,-638.99C202.59,-629.28 187.45,-616.52 175.94,-606.83"/>
</g>
</g>
</svg>
